<mxfile host="app.diagrams.net" modified="2023-05-29T07:26:06.244Z" agent="Mozilla/5.0 (Windows NT 10.0; Win64; x64) AppleWebKit/537.36 (KHTML, like Gecko) Chrome/113.0.0.0 Safari/537.36" etag="iyrwjXWGQdpPMR3Y4ugh" version="21.3.2" type="github">
  <diagram name="Page-1" id="aF9d_BTxybblVjClK93X">
    <mxGraphModel dx="2261" dy="884" grid="1" gridSize="10" guides="1" tooltips="1" connect="1" arrows="1" fold="1" page="1" pageScale="1" pageWidth="827" pageHeight="1169" math="1" shadow="0">
      <root>
        <mxCell id="0" />
        <mxCell id="1" parent="0" />
        <mxCell id="mwbQVlLyfu1s0vwKw-6w-7" value="" style="whiteSpace=wrap;html=1;labelBackgroundColor=#FFFFFF;dashed=1;strokeWidth=2;" vertex="1" parent="1">
          <mxGeometry x="520" y="340" width="320" height="300" as="geometry" />
        </mxCell>
        <mxCell id="mwbQVlLyfu1s0vwKw-6w-8" value="" style="edgeStyle=orthogonalEdgeStyle;rounded=0;orthogonalLoop=1;jettySize=auto;html=1;strokeWidth=6;" edge="1" parent="1" target="mwbQVlLyfu1s0vwKw-6w-7">
          <mxGeometry relative="1" as="geometry">
            <Array as="points">
              <mxPoint x="510" y="470" />
              <mxPoint x="510" y="470" />
            </Array>
            <mxPoint x="440" y="470" as="sourcePoint" />
          </mxGeometry>
        </mxCell>
        <mxCell id="mwbQVlLyfu1s0vwKw-6w-10" value="&lt;b&gt;&lt;font style=&quot;font-size: 18px;&quot;&gt;Input&lt;/font&gt;&lt;/b&gt; &lt;br&gt;" style="rounded=1;whiteSpace=wrap;html=1;fontSize=12;glass=0;strokeWidth=1;shadow=0;fillColor=#ffe6cc;strokeColor=#d79b00;align=center;" vertex="1" parent="1">
          <mxGeometry x="-105" y="422.5" width="140" height="80" as="geometry" />
        </mxCell>
        <mxCell id="mwbQVlLyfu1s0vwKw-6w-13" value="&lt;font style=&quot;font-size: 16px;&quot;&gt;$$\mathbf{Y}$$&lt;/font&gt;" style="text;strokeColor=none;align=center;fillColor=none;html=1;verticalAlign=middle;whiteSpace=wrap;rounded=0;" vertex="1" parent="1">
          <mxGeometry x="-25" y="450" width="60" height="28.5" as="geometry" />
        </mxCell>
        <mxCell id="mwbQVlLyfu1s0vwKw-6w-14" value="&lt;span style=&quot;font-size: 18px;&quot;&gt;Obfuscate Latent Graph Structure&lt;/span&gt;" style="rounded=1;whiteSpace=wrap;html=1;fontSize=18;glass=0;strokeWidth=1;shadow=0;fillColor=#ffe6cc;strokeColor=#d79b00;fontStyle=1" vertex="1" parent="1">
          <mxGeometry x="570" y="357.5" width="220" height="80" as="geometry" />
        </mxCell>
        <mxCell id="mwbQVlLyfu1s0vwKw-6w-15" value="&lt;b style=&quot;border-color: var(--border-color);&quot;&gt;&lt;font style=&quot;font-size: 16px;&quot;&gt;$$\mathbf{U}$$&lt;/font&gt;&lt;/b&gt;" style="text;strokeColor=none;align=center;fillColor=none;html=1;verticalAlign=middle;whiteSpace=wrap;rounded=0;" vertex="1" parent="1">
          <mxGeometry x="710" y="396.5" width="60" height="26" as="geometry" />
        </mxCell>
        <mxCell id="mwbQVlLyfu1s0vwKw-6w-16" value="Obfuscate Spectral-Domain Signal" style="rounded=1;whiteSpace=wrap;html=1;fontSize=18;glass=0;strokeWidth=1;shadow=0;fillColor=#ffe6cc;strokeColor=#d79b00;fontStyle=1" vertex="1" parent="1">
          <mxGeometry x="570" y="481.5" width="220" height="80" as="geometry" />
        </mxCell>
        <mxCell id="mwbQVlLyfu1s0vwKw-6w-17" value="&lt;b style=&quot;border-color: var(--border-color);&quot;&gt;&lt;font style=&quot;font-size: 16px;&quot;&gt;$$\mathbf{S}$$&lt;/font&gt;&lt;/b&gt;" style="text;strokeColor=none;align=center;fillColor=none;html=1;verticalAlign=middle;whiteSpace=wrap;rounded=0;" vertex="1" parent="1">
          <mxGeometry x="730" y="520" width="60" height="26" as="geometry" />
        </mxCell>
        <mxCell id="mwbQVlLyfu1s0vwKw-6w-18" value="&lt;b&gt;&lt;font style=&quot;font-size: 18px;&quot;&gt;Output Perturbed data&lt;/font&gt;&lt;/b&gt;" style="rounded=1;whiteSpace=wrap;html=1;fontSize=12;glass=0;strokeWidth=1;shadow=0;fillColor=#ffe6cc;strokeColor=#d79b00;align=center;" vertex="1" parent="1">
          <mxGeometry x="932" y="425" width="140" height="80" as="geometry" />
        </mxCell>
        <mxCell id="mwbQVlLyfu1s0vwKw-6w-19" value="&lt;font style=&quot;font-size: 16px;&quot;&gt;$$\mathbf{Y}&#39;$$&lt;/font&gt;" style="text;strokeColor=none;align=center;fillColor=none;html=1;verticalAlign=middle;whiteSpace=wrap;rounded=0;" vertex="1" parent="1">
          <mxGeometry x="972" y="480" width="60" height="28.5" as="geometry" />
        </mxCell>
        <mxCell id="mwbQVlLyfu1s0vwKw-6w-20" value="" style="edgeStyle=orthogonalEdgeStyle;rounded=0;orthogonalLoop=1;jettySize=auto;html=1;strokeWidth=6;" edge="1" parent="1">
          <mxGeometry relative="1" as="geometry">
            <mxPoint x="840" y="465" as="sourcePoint" />
            <mxPoint x="930" y="464.5" as="targetPoint" />
            <Array as="points">
              <mxPoint x="840" y="465" />
              <mxPoint x="885" y="465" />
            </Array>
          </mxGeometry>
        </mxCell>
        <mxCell id="mwbQVlLyfu1s0vwKw-6w-21" value="Perturbation for Graph Privacy Preservation" style="text;strokeColor=none;align=center;fillColor=none;html=1;verticalAlign=middle;whiteSpace=wrap;rounded=0;fontColor=#004C99;fontStyle=1;fontSize=17;" vertex="1" parent="1">
          <mxGeometry x="580" y="585" width="200" height="35" as="geometry" />
        </mxCell>
        <mxCell id="mwbQVlLyfu1s0vwKw-6w-23" value="" style="edgeStyle=orthogonalEdgeStyle;rounded=0;orthogonalLoop=1;jettySize=auto;html=1;strokeWidth=6;" edge="1" parent="1">
          <mxGeometry relative="1" as="geometry">
            <mxPoint x="35" y="464.08" as="sourcePoint" />
            <mxPoint x="115" y="464.08" as="targetPoint" />
            <Array as="points">
              <mxPoint x="105" y="464.08" />
              <mxPoint x="105" y="464.08" />
            </Array>
          </mxGeometry>
        </mxCell>
        <mxCell id="mwbQVlLyfu1s0vwKw-6w-24" value="" style="whiteSpace=wrap;html=1;labelBackgroundColor=#FFFFFF;dashed=1;strokeWidth=2;" vertex="1" parent="1">
          <mxGeometry x="119" y="340" width="320" height="300" as="geometry" />
        </mxCell>
        <mxCell id="mwbQVlLyfu1s0vwKw-6w-25" value="&lt;span style=&quot;font-size: 18px;&quot;&gt;Learn the GFT &lt;br&gt;basis&lt;/span&gt;" style="rounded=1;whiteSpace=wrap;html=1;fontSize=18;glass=0;strokeWidth=1;shadow=0;fillColor=#ffe6cc;strokeColor=#d79b00;fontStyle=1" vertex="1" parent="1">
          <mxGeometry x="169" y="357.5" width="220" height="80" as="geometry" />
        </mxCell>
        <mxCell id="mwbQVlLyfu1s0vwKw-6w-26" value="&lt;b style=&quot;border-color: var(--border-color);&quot;&gt;&lt;font style=&quot;font-size: 16px;&quot;&gt;$$\mathbf{U}^*$$&lt;/font&gt;&lt;/b&gt;" style="text;strokeColor=none;align=center;fillColor=none;html=1;verticalAlign=middle;whiteSpace=wrap;rounded=0;" vertex="1" parent="1">
          <mxGeometry x="289" y="396.5" width="60" height="26" as="geometry" />
        </mxCell>
        <mxCell id="mwbQVlLyfu1s0vwKw-6w-27" value="Learn the Spectral Data Representation" style="rounded=1;whiteSpace=wrap;html=1;fontSize=18;glass=0;strokeWidth=1;shadow=0;fillColor=#ffe6cc;strokeColor=#d79b00;fontStyle=1" vertex="1" parent="1">
          <mxGeometry x="169" y="481.5" width="220" height="80" as="geometry" />
        </mxCell>
        <mxCell id="mwbQVlLyfu1s0vwKw-6w-28" value="&lt;b style=&quot;border-color: var(--border-color);&quot;&gt;&lt;font style=&quot;font-size: 16px;&quot;&gt;$$\mathbf{S}^*$$&lt;/font&gt;&lt;/b&gt;" style="text;strokeColor=none;align=center;fillColor=none;html=1;verticalAlign=middle;whiteSpace=wrap;rounded=0;" vertex="1" parent="1">
          <mxGeometry x="329" y="520" width="60" height="26" as="geometry" />
        </mxCell>
        <mxCell id="mwbQVlLyfu1s0vwKw-6w-29" value="Graph Topology and Spectral Signal Representation" style="text;strokeColor=none;align=center;fillColor=none;html=1;verticalAlign=middle;whiteSpace=wrap;rounded=0;fontColor=#004C99;fontStyle=1;fontSize=17;" vertex="1" parent="1">
          <mxGeometry x="179" y="585" width="200" height="35" as="geometry" />
        </mxCell>
      </root>
    </mxGraphModel>
  </diagram>
</mxfile>
